<?xml version="1.0" encoding="utf-8"?>
<!-- Generator: Adobe Illustrator 25.2.0, SVG Export Plug-In . SVG Version: 6.00 Build 0)  -->
<!DOCTYPE svg PUBLIC "-//W3C//DTD SVG 1.1//EN" "http://www.w3.org/Graphics/SVG/1.1/DTD/svg11.dtd" [
	<!ENTITY ns_extend "http://ns.adobe.com/Extensibility/1.0/">
	<!ENTITY ns_ai "http://ns.adobe.com/AdobeIllustrator/10.0/">
	<!ENTITY ns_graphs "http://ns.adobe.com/Graphs/1.0/">
	<!ENTITY ns_vars "http://ns.adobe.com/Variables/1.0/">
	<!ENTITY ns_imrep "http://ns.adobe.com/ImageReplacement/1.0/">
	<!ENTITY ns_sfw "http://ns.adobe.com/SaveForWeb/1.0/">
	<!ENTITY ns_custom "http://ns.adobe.com/GenericCustomNamespace/1.0/">
	<!ENTITY ns_adobe_xpath "http://ns.adobe.com/XPath/1.0/">
]>
<svg version="1.1" id="Layer_1" xmlns:x="&ns_extend;" xmlns:i="&ns_ai;" xmlns:graph="&ns_graphs;"
	 xmlns="http://www.w3.org/2000/svg" xmlns:xlink="http://www.w3.org/1999/xlink" x="0px" y="0px" viewBox="0 0 448.1 114.7"
	 style="enable-background:new 0 0 448.1 114.7;" xml:space="preserve">
<style type="text/css">
	.st0{fill:#4689C8;}
	.st1{fill:url(#SVGID_1_);}
	.st2{fill:url(#SVGID_2_);}
	.st3{fill:url(#SVGID_3_);}
	.st4{fill:url(#SVGID_4_);}
	.st5{fill:url(#SVGID_5_);}
	.st6{fill:url(#SVGID_6_);}
	.st7{fill:url(#SVGID_7_);}
	.st8{fill:url(#SVGID_8_);}
</style>
<metadata>
	<sfw  xmlns="&ns_sfw;">
		<slices></slices>
		<sliceSourceBounds  bottomLeftOrigin="true" height="114" width="444.7" x="0" y="0.2"></sliceSourceBounds>
	</sfw>
</metadata>
<g>
	<g>
		<g>
			<g>
				<g>
					<path class="st0" d="M174.1,68.8h-10.2V45h-25.5v23.8h-10.2V14.4h10.2v23.4h25.5V14.4h10.2V68.8z"/>
					<path class="st0" d="M200.5,29.6c2.4,0,4.7,0.4,6.7,1.2s3.8,1.9,5.3,3.4c1.5,1.5,2.6,3.3,3.5,5.5c0.8,2.2,1.2,4.6,1.2,7.4
						c0,0.7,0,1.3-0.1,1.8s-0.2,0.8-0.3,1.1s-0.4,0.4-0.7,0.6s-0.6,0.2-1,0.2h-23.9c0.3,4,1.3,6.9,3.2,8.7c1.9,1.9,4.3,2.8,7.4,2.8
						c1.5,0,2.8-0.2,3.9-0.5s2-0.7,2.9-1.2c0.8-0.4,1.5-0.8,2.1-1.2c0.6-0.4,1.2-0.5,1.8-0.5c0.4,0,0.7,0.1,1,0.2s0.5,0.4,0.7,0.6
						l2.7,3.4c-1,1.2-2.2,2.2-3.5,3c-1.3,0.8-2.6,1.5-4,2c-1.4,0.5-2.8,0.8-4.2,1s-2.8,0.3-4.2,0.3c-2.7,0-5.2-0.5-7.5-1.3
						c-2.3-0.9-4.3-2.2-6-4c-1.7-1.7-3.1-3.9-4-6.5c-1-2.6-1.5-5.6-1.5-8.9c0-2.6,0.4-5.1,1.3-7.4c0.9-2.3,2.1-4.3,3.7-6.1
						c1.6-1.7,3.5-3.1,5.8-4.1C195,30.1,197.6,29.6,200.5,29.6z M200.7,36.3c-2.7,0-4.8,0.8-6.4,2.3c-1.5,1.5-2.5,3.7-2.9,6.5h17.5
						c0-1.2-0.2-2.3-0.5-3.4c-0.3-1.1-0.8-2-1.5-2.8c-0.7-0.8-1.5-1.4-2.6-1.9S202,36.3,200.7,36.3z"/>
					<path class="st0" d="M224.7,68.8V30.2h5.5c1,0,1.6,0.2,2,0.5c0.4,0.4,0.6,0.9,0.8,1.8l0.6,4.7c1.4-2.4,3-4.3,4.9-5.6
						c1.9-1.4,3.9-2.1,6.2-2.1c1.9,0,3.5,0.4,4.7,1.3l-1.2,7c-0.1,0.4-0.2,0.8-0.5,1s-0.6,0.3-1,0.3c-0.4,0-0.9-0.1-1.5-0.3
						c-0.6-0.2-1.5-0.3-2.6-0.3c-1.9,0-3.6,0.5-5,1.6c-1.4,1.1-2.5,2.6-3.5,4.7v24L224.7,68.8L224.7,68.8z"/>
					<path class="st0" d="M268.1,69.4c-3.3,0-5.9-1-7.7-2.8c-1.8-1.9-2.7-4.5-2.7-7.8V37.2h-3.9c-0.5,0-0.9-0.2-1.3-0.5
						c-0.4-0.3-0.5-0.8-0.5-1.5v-3.7l6.2-1l2-10.5c0.1-0.5,0.3-0.9,0.7-1.2c0.4-0.3,0.8-0.4,1.4-0.4h4.8v12.1h10.2v6.6H267v20.9
						c0,1.2,0.3,2.1,0.9,2.8c0.6,0.7,1.4,1,2.4,1c0.6,0,1.1-0.1,1.5-0.2s0.7-0.3,1-0.4c0.3-0.1,0.5-0.3,0.8-0.4
						c0.2-0.1,0.5-0.2,0.7-0.2c0.3,0,0.5,0.1,0.7,0.2s0.4,0.3,0.6,0.6l2.8,4.5c-1.4,1.1-2.9,2-4.7,2.6
						C271.8,69.1,270,69.4,268.1,69.4z"/>
					<path class="st0" d="M312.5,34c0,0.6-0.1,1.3-0.4,1.9s-0.5,1.1-0.9,1.6l-18.4,24.1h19v7.2h-29.8v-3.9c0-0.4,0.1-0.9,0.3-1.5
						c0.2-0.6,0.5-1.1,0.9-1.7l18.5-24.4h-18.6v-7.1h29.3V34z"/>
					<path class="st0" d="M342.8,37.7c-0.2,0.4-0.5,0.7-0.8,0.9c-0.3,0.2-0.6,0.2-1,0.2c-0.5,0-0.9-0.1-1.5-0.4
						c-0.5-0.2-1.1-0.5-1.8-0.9c-0.7-0.3-1.5-0.6-2.3-0.9c-0.9-0.2-1.9-0.4-3.1-0.4c-1.8,0-3.3,0.4-4.3,1.2c-1,0.8-1.6,1.8-1.6,3.1
						c0,0.8,0.3,1.5,0.8,2.1c0.5,0.6,1.2,1.1,2.1,1.5c0.9,0.4,1.9,0.8,3,1.1s2.3,0.7,3.5,1.1s2.3,0.9,3.5,1.4s2.1,1.2,3,2
						c0.9,0.8,1.6,1.7,2.1,2.8c0.5,1.1,0.8,2.4,0.8,4c0,1.9-0.3,3.6-1,5.1c-0.7,1.6-1.7,2.9-3,4.1c-1.3,1.1-2.9,2-4.8,2.7
						c-1.9,0.6-4.1,1-6.6,1c-1.3,0-2.6-0.1-3.9-0.4c-1.3-0.2-2.5-0.6-3.6-1c-1.2-0.4-2.2-0.9-3.2-1.5c-1-0.6-1.9-1.2-2.6-1.9
						l2.1-3.5c0.3-0.4,0.6-0.8,1-1s0.9-0.3,1.4-0.3s1.1,0.2,1.6,0.5c0.5,0.3,1.1,0.7,1.8,1.1s1.5,0.7,2.4,1.1
						c0.9,0.3,2.1,0.5,3.5,0.5c1.1,0,2-0.1,2.8-0.4s1.4-0.6,2-1c0.5-0.4,0.9-0.9,1.1-1.5c0.2-0.6,0.4-1.1,0.4-1.8
						c0-0.9-0.3-1.6-0.8-2.2s-1.2-1.1-2.1-1.5c-0.9-0.4-1.9-0.8-3-1.1c-1.1-0.3-2.3-0.7-3.5-1.1s-2.4-0.9-3.5-1.4
						c-1.1-0.5-2.2-1.2-3-2.1c-0.9-0.8-1.6-1.8-2.1-3.1c-0.5-1.2-0.8-2.7-0.8-4.4c0-1.6,0.3-3.1,0.9-4.5s1.5-2.7,2.8-3.7
						c1.2-1.1,2.7-1.9,4.5-2.6c1.8-0.6,3.9-1,6.3-1c2.7,0,5.1,0.4,7.3,1.3c2.2,0.9,4,2,5.5,3.5L342.8,37.7z"/>
					<path class="st0" d="M369.2,29.6c2.9,0,5.5,0.5,7.8,1.4s4.3,2.2,6,3.9c1.7,1.7,2.9,3.8,3.8,6.2c0.9,2.5,1.4,5.2,1.4,8.2
						c0,3.1-0.5,5.8-1.4,8.3c-0.9,2.5-2.2,4.6-3.8,6.3c-1.6,1.7-3.6,3.1-6,4s-5,1.4-7.8,1.4s-5.5-0.5-7.9-1.4c-2.4-0.9-4.4-2.3-6-4
						c-1.7-1.7-3-3.8-3.9-6.3c-0.9-2.5-1.4-5.2-1.4-8.3c0-3,0.5-5.8,1.4-8.2s2.2-4.5,3.9-6.2c1.7-1.7,3.7-3,6-3.9
						C363.7,30,366.4,29.6,369.2,29.6z M369.2,62.2c3.2,0,5.6-1.1,7.1-3.2c1.5-2.2,2.3-5.3,2.3-9.5c0-4.2-0.8-7.3-2.3-9.5
						c-1.5-2.2-3.9-3.3-7.1-3.3c-3.3,0-5.7,1.1-7.2,3.3c-1.5,2.2-2.3,5.4-2.3,9.5s0.8,7.3,2.3,9.5C363.6,61.1,366,62.2,369.2,62.2z"
						/>
					<path class="st0" d="M397.2,68.8V37.2l-3.4-0.5c-0.7-0.1-1.3-0.4-1.8-0.8c-0.4-0.4-0.7-0.9-0.7-1.6v-3.8h5.8v-2.9
						c0-2.2,0.3-4.2,1-5.9c0.7-1.8,1.6-3.2,2.9-4.5s2.8-2.2,4.5-2.8c1.8-0.6,3.8-1,6-1c1.8,0,3.4,0.2,5,0.7l-0.2,4.7
						c0,0.7-0.4,1.2-1,1.4c-0.6,0.2-1.4,0.3-2.2,0.3c-1.1,0-2.1,0.1-3,0.4c-0.9,0.2-1.6,0.6-2.2,1.2c-0.6,0.6-1.1,1.4-1.4,2.3
						c-0.3,1-0.5,2.2-0.5,3.6v2.6h10v6.6h-9.7v31.6L397.2,68.8L397.2,68.8z"/>
					<path class="st0" d="M434.6,69.4c-3.3,0-5.9-1-7.7-2.8c-1.8-1.9-2.7-4.5-2.7-7.8V37.2h-3.9c-0.5,0-0.9-0.2-1.3-0.5
						c-0.4-0.3-0.5-0.8-0.5-1.5v-3.7l6.2-1l2-10.5c0.1-0.5,0.3-0.9,0.7-1.2c0.4-0.3,0.8-0.4,1.4-0.4h4.8v12.1h10.2v6.6h-10.2v20.9
						c0,1.2,0.3,2.1,0.9,2.8c0.6,0.7,1.4,1,2.4,1c0.6,0,1.1-0.1,1.5-0.2s0.7-0.3,1-0.4c0.3-0.1,0.5-0.3,0.8-0.4
						c0.2-0.1,0.5-0.2,0.7-0.2c0.3,0,0.5,0.1,0.7,0.2s0.4,0.3,0.6,0.6l2.8,4.5c-1.4,1.1-2.9,2-4.7,2.6
						C438.3,69.1,436.5,69.4,434.6,69.4z"/>
				</g>
			</g>
			<g>
				<path class="st0" d="M141.9,84.1v2.6h-5.2v14.7h-3.2V86.7h-5.2v-2.6L141.9,84.1L141.9,84.1z"/>
				<path class="st0" d="M143.7,101.4V83.6h3v6.8c0.5-0.5,1-0.8,1.6-1.1s1.2-0.4,2-0.4c0.7,0,1.3,0.1,1.8,0.3c0.5,0.2,1,0.5,1.3,1
					s0.6,0.9,0.8,1.5s0.3,1.2,0.3,1.9v7.8h-3v-7.8c0-0.8-0.2-1.3-0.5-1.7s-0.9-0.6-1.6-0.6c-0.5,0-1,0.1-1.4,0.4
					c-0.5,0.2-0.9,0.5-1.3,1v8.9L143.7,101.4L143.7,101.4z"/>
				<path class="st0" d="M160.9,85.5c0,0.3,0,0.5-0.2,0.7c-0.1,0.2-0.2,0.4-0.4,0.6c-0.2,0.2-0.4,0.3-0.6,0.4
					c-0.2,0.1-0.5,0.1-0.7,0.1s-0.5,0-0.7-0.1c-0.2-0.1-0.4-0.2-0.6-0.4c-0.2-0.2-0.3-0.4-0.4-0.6c-0.1-0.2-0.1-0.5-0.1-0.7
					s0-0.5,0.1-0.7c0.1-0.2,0.2-0.4,0.4-0.6c0.2-0.2,0.4-0.3,0.6-0.4c0.2-0.1,0.5-0.1,0.7-0.1c0.3,0,0.5,0,0.7,0.1s0.4,0.2,0.6,0.4
					c0.2,0.2,0.3,0.4,0.4,0.6C160.9,85,160.9,85.2,160.9,85.5z M160.5,89.1v12.3h-3V89.1H160.5z"/>
				<path class="st0" d="M163.8,101.4V89.1h1.8c0.4,0,0.6,0.2,0.8,0.5l0.2,1c0.2-0.3,0.5-0.5,0.8-0.7c0.3-0.2,0.6-0.4,0.9-0.5
					c0.3-0.1,0.6-0.3,1-0.4c0.4-0.1,0.7-0.1,1.1-0.1c0.7,0,1.3,0.1,1.8,0.3c0.5,0.2,1,0.5,1.3,1s0.6,0.9,0.8,1.5s0.3,1.2,0.3,1.9
					v7.8h-3v-7.8c0-0.8-0.2-1.3-0.5-1.7s-0.9-0.6-1.6-0.6c-0.5,0-1,0.1-1.4,0.4c-0.5,0.2-0.9,0.5-1.3,1v8.9L163.8,101.4L163.8,101.4
					z"/>
				<path class="st0" d="M180.4,83.6v10.2h0.5c0.2,0,0.4,0,0.5-0.1c0.1-0.1,0.2-0.2,0.4-0.3l3-3.8c0.1-0.2,0.3-0.3,0.4-0.4
					s0.4-0.1,0.6-0.1h2.7l-3.8,4.6c-0.1,0.2-0.3,0.3-0.4,0.5c-0.1,0.1-0.3,0.3-0.5,0.4c0.2,0.1,0.3,0.3,0.4,0.4
					c0.1,0.2,0.3,0.3,0.4,0.5l4.1,6h-2.7c-0.2,0-0.4,0-0.6-0.1s-0.3-0.2-0.4-0.4l-3.1-4.7c-0.1-0.2-0.2-0.3-0.4-0.4
					s-0.3-0.1-0.5-0.1h-0.7v5.6h-3V83.6L180.4,83.6L180.4,83.6z"/>
				<path class="st0" d="M198.9,85.5c0,0.3,0,0.5-0.2,0.7c-0.1,0.2-0.2,0.4-0.4,0.6c-0.2,0.2-0.4,0.3-0.6,0.4
					c-0.2,0.1-0.5,0.1-0.7,0.1s-0.5,0-0.7-0.1c-0.2-0.1-0.4-0.2-0.6-0.4c-0.2-0.2-0.3-0.4-0.4-0.6c-0.1-0.2-0.1-0.5-0.1-0.7
					s0-0.5,0.1-0.7c0.1-0.2,0.2-0.4,0.4-0.6c0.2-0.2,0.4-0.3,0.6-0.4c0.2-0.1,0.5-0.1,0.7-0.1c0.3,0,0.5,0,0.7,0.1s0.4,0.2,0.6,0.4
					c0.2,0.2,0.3,0.4,0.4,0.6C198.8,85,198.9,85.2,198.9,85.5z M198.4,89.1v12.3h-3V89.1H198.4z"/>
				<path class="st0" d="M201.8,101.4V89.1h1.8c0.4,0,0.6,0.2,0.8,0.5l0.2,1c0.2-0.3,0.5-0.5,0.8-0.7c0.3-0.2,0.6-0.4,0.9-0.5
					c0.3-0.1,0.6-0.3,1-0.4c0.4-0.1,0.7-0.1,1.1-0.1c0.7,0,1.3,0.1,1.8,0.3c0.5,0.2,0.9,0.5,1.3,1s0.6,0.9,0.8,1.5s0.3,1.2,0.3,1.9
					v7.8h-3v-7.8c0-0.8-0.2-1.3-0.5-1.7s-0.9-0.6-1.6-0.6c-0.5,0-1,0.1-1.4,0.4c-0.4,0.2-0.9,0.5-1.3,1v8.9L201.8,101.4L201.8,101.4
					z"/>
				<path class="st0" d="M222.2,84.1c0.1,0,0.2,0,0.3,0.1c0.1,0,0.1,0.1,0.2,0.2s0.1,0.2,0.2,0.3l9.1,11.6c0-0.3,0-0.5-0.1-0.8
					c0-0.3,0-0.5,0-0.8V84.1h2.8v17.3h-1.7c-0.3,0-0.5,0-0.6-0.1c-0.2-0.1-0.3-0.2-0.5-0.4l-9.1-11.5c0,0.3,0,0.5,0.1,0.8
					c0,0.2,0,0.5,0,0.7v10.6h-2.8V84.1h1.7C222,84.1,222.1,84.1,222.2,84.1z"/>
				<path class="st0" d="M243.2,88.9c0.8,0,1.5,0.1,2.1,0.4c0.6,0.2,1.2,0.6,1.7,1.1c0.5,0.5,0.8,1.1,1.1,1.8s0.4,1.5,0.4,2.4
					c0,0.2,0,0.4,0,0.6s-0.1,0.3-0.1,0.4c0,0.1-0.1,0.1-0.2,0.2c-0.1,0-0.2,0-0.3,0h-7.6c0.1,1.3,0.4,2.2,1,2.8s1.4,0.9,2.4,0.9
					c0.5,0,0.9-0.1,1.2-0.2s0.6-0.2,0.9-0.4c0.3-0.1,0.5-0.3,0.7-0.4c0.2-0.1,0.4-0.2,0.6-0.2c0.1,0,0.2,0,0.3,0.1
					c0.1,0,0.2,0.1,0.2,0.2l0.9,1.1c-0.3,0.4-0.7,0.7-1.1,1c-0.4,0.3-0.8,0.5-1.3,0.6c-0.4,0.2-0.9,0.3-1.4,0.3s-0.9,0.1-1.3,0.1
					c-0.9,0-1.6-0.1-2.4-0.4c-0.7-0.3-1.4-0.7-1.9-1.3c-0.5-0.5-1-1.2-1.3-2.1s-0.5-1.8-0.5-2.8c0-0.8,0.1-1.6,0.4-2.4
					c0.3-0.7,0.7-1.4,1.2-1.9s1.1-1,1.9-1.3C241.4,89.1,242.3,88.9,243.2,88.9z M243.2,91c-0.9,0-1.5,0.2-2,0.7
					c-0.5,0.5-0.8,1.2-0.9,2.1h5.6c0-0.4,0-0.7-0.2-1.1c-0.1-0.3-0.3-0.6-0.5-0.9c-0.2-0.3-0.5-0.5-0.8-0.6
					C244.1,91.1,243.7,91,243.2,91z"/>
				<path class="st0" d="M249.4,89.1h2.4c0.2,0,0.4,0,0.6,0.2c0.1,0.1,0.2,0.2,0.3,0.4l1.8,6.6c0.1,0.4,0.2,0.7,0.2,1s0.1,0.7,0.2,1
					c0.1-0.3,0.2-0.7,0.3-1s0.2-0.7,0.3-1l2-6.6c0-0.2,0.1-0.3,0.3-0.4c0.1-0.1,0.3-0.2,0.5-0.2h1.3c0.2,0,0.4,0,0.5,0.2
					c0.1,0.1,0.2,0.2,0.3,0.4l2,6.7c0.1,0.3,0.2,0.7,0.3,1s0.2,0.6,0.2,1c0.1-0.3,0.1-0.7,0.2-1s0.1-0.7,0.3-1.1l1.8-6.6
					c0-0.2,0.1-0.3,0.3-0.4s0.3-0.2,0.5-0.2h2.2l-3.9,12.3h-2.4c-0.3,0-0.4-0.2-0.5-0.5l-2.2-7.1c-0.1-0.2-0.1-0.5-0.2-0.7
					c-0.1-0.2-0.1-0.5-0.1-0.7c0,0.2-0.1,0.5-0.2,0.7c-0.1,0.2-0.1,0.5-0.2,0.7l-2.2,7.1c-0.1,0.4-0.3,0.5-0.6,0.5h-2.3L249.4,89.1z
					"/>
				<path class="st0" d="M290,92.7c0,1.3-0.2,2.4-0.6,3.5c-0.4,1.1-1,2-1.8,2.7c-0.8,0.8-1.7,1.4-2.8,1.8s-2.3,0.6-3.6,0.6h-6.6
					V84.1h6.6c1.3,0,2.5,0.2,3.6,0.6c1.1,0.4,2,1,2.8,1.8s1.4,1.7,1.8,2.7C289.8,90.3,290,91.5,290,92.7z M286.7,92.7
					c0-1-0.1-1.8-0.4-2.6c-0.3-0.8-0.6-1.4-1.1-1.9c-0.5-0.5-1-0.9-1.7-1.2c-0.7-0.3-1.4-0.4-2.3-0.4h-3.4v12.2h3.4
					c0.9,0,1.6-0.1,2.3-0.4s1.2-0.7,1.7-1.2c0.5-0.5,0.8-1.2,1.1-1.9C286.6,94.5,286.7,93.7,286.7,92.7z"/>
				<path class="st0" d="M296,85.5c0,0.3,0,0.5-0.2,0.7c-0.1,0.2-0.2,0.4-0.4,0.6c-0.2,0.2-0.4,0.3-0.6,0.4s-0.5,0.1-0.7,0.1
					c-0.3,0-0.5,0-0.7-0.1c-0.2-0.1-0.4-0.2-0.6-0.4c-0.2-0.2-0.3-0.4-0.4-0.6c-0.1-0.2-0.1-0.5-0.1-0.7s0-0.5,0.1-0.7
					c0.1-0.2,0.2-0.4,0.4-0.6c0.2-0.2,0.4-0.3,0.6-0.4c0.2-0.1,0.5-0.1,0.7-0.1c0.3,0,0.5,0,0.7,0.1c0.2,0.1,0.4,0.2,0.6,0.4
					c0.2,0.2,0.3,0.4,0.4,0.6C295.9,85,296,85.2,296,85.5z M295.5,89.1v12.3h-3V89.1H295.5z"/>
				<path class="st0" d="M298.9,101.4V89.1h1.8c0.4,0,0.6,0.2,0.8,0.5l0.2,0.9c0.2-0.2,0.4-0.5,0.7-0.7s0.5-0.4,0.8-0.5
					c0.3-0.1,0.5-0.3,0.9-0.3s0.6-0.1,1-0.1c0.8,0,1.4,0.2,1.9,0.6s0.9,1,1.1,1.7c0.2-0.4,0.4-0.8,0.7-1c0.3-0.3,0.6-0.5,1-0.7
					c0.3-0.2,0.7-0.3,1.1-0.4s0.8-0.1,1.2-0.1c0.7,0,1.3,0.1,1.8,0.3s1,0.5,1.3,0.9s0.6,0.9,0.8,1.5c0.2,0.6,0.3,1.2,0.3,2v7.8h-3
					v-7.8c0-0.8-0.2-1.4-0.5-1.8s-0.9-0.6-1.5-0.6c-0.3,0-0.6,0-0.8,0.2c-0.3,0.1-0.5,0.2-0.7,0.5c-0.2,0.2-0.4,0.4-0.5,0.7
					s-0.2,0.6-0.2,1v7.8h-3v-7.8c0-0.8-0.2-1.4-0.5-1.8c-0.3-0.4-0.8-0.6-1.5-0.6c-0.4,0-0.8,0.1-1.2,0.3c-0.4,0.2-0.7,0.5-1,0.9v9
					L298.9,101.4L298.9,101.4z"/>
				<path class="st0" d="M324.1,88.9c0.8,0,1.5,0.1,2.1,0.4c0.6,0.2,1.2,0.6,1.7,1.1c0.5,0.5,0.8,1.1,1.1,1.8s0.4,1.5,0.4,2.4
					c0,0.2,0,0.4,0,0.6s-0.1,0.3-0.1,0.4c0,0.1-0.1,0.1-0.2,0.2c-0.1,0-0.2,0-0.3,0h-7.6c0.1,1.3,0.4,2.2,1,2.8s1.4,0.9,2.4,0.9
					c0.5,0,0.9-0.1,1.2-0.2s0.6-0.2,0.9-0.4c0.3-0.1,0.5-0.3,0.7-0.4c0.2-0.1,0.4-0.2,0.6-0.2c0.1,0,0.2,0,0.3,0.1s0.2,0.1,0.2,0.2
					l0.9,1.1c-0.3,0.4-0.7,0.7-1.1,1c-0.4,0.3-0.8,0.5-1.3,0.6c-0.4,0.2-0.9,0.3-1.4,0.3s-0.9,0.1-1.3,0.1c-0.9,0-1.6-0.1-2.4-0.4
					c-0.7-0.3-1.4-0.7-1.9-1.3c-0.5-0.5-1-1.2-1.3-2.1s-0.5-1.8-0.5-2.8c0-0.8,0.1-1.6,0.4-2.4c0.3-0.7,0.7-1.4,1.2-1.9
					s1.1-1,1.9-1.3C322.4,89.1,323.2,88.9,324.1,88.9z M324.2,91c-0.9,0-1.5,0.2-2,0.7c-0.5,0.5-0.8,1.2-0.9,2.1h5.6
					c0-0.4,0-0.7-0.2-1.1c-0.1-0.3-0.3-0.6-0.5-0.9c-0.2-0.3-0.5-0.5-0.8-0.6C325,91.1,324.6,91,324.2,91z"/>
				<path class="st0" d="M331.8,101.4V89.1h1.8c0.4,0,0.6,0.2,0.8,0.5l0.2,1c0.2-0.3,0.5-0.5,0.8-0.7c0.3-0.2,0.6-0.4,0.9-0.5
					c0.3-0.1,0.6-0.3,1-0.4c0.4-0.1,0.7-0.1,1.1-0.1c0.7,0,1.3,0.1,1.8,0.3c0.5,0.2,1,0.5,1.3,1c0.4,0.4,0.6,0.9,0.8,1.5
					c0.2,0.6,0.3,1.2,0.3,1.9v7.8h-3v-7.8c0-0.8-0.2-1.3-0.5-1.7c-0.4-0.4-0.9-0.6-1.6-0.6c-0.5,0-1,0.1-1.4,0.4s-0.9,0.5-1.3,1v8.9
					L331.8,101.4L331.8,101.4z"/>
				<path class="st0" d="M352.7,91.5c-0.1,0.1-0.2,0.2-0.2,0.3s-0.2,0.1-0.3,0.1c-0.1,0-0.3,0-0.5-0.1s-0.4-0.2-0.6-0.3
					c-0.2-0.1-0.5-0.2-0.7-0.3s-0.6-0.1-1-0.1c-0.6,0-1,0.1-1.4,0.4s-0.5,0.6-0.5,1c0,0.3,0.1,0.5,0.3,0.7s0.4,0.3,0.7,0.5
					c0.3,0.1,0.6,0.3,1,0.4s0.7,0.2,1.1,0.4c0.4,0.1,0.7,0.3,1.1,0.4c0.4,0.2,0.7,0.4,1,0.6s0.5,0.5,0.7,0.9
					c0.2,0.4,0.3,0.8,0.3,1.3c0,0.6-0.1,1.1-0.3,1.6c-0.2,0.5-0.5,0.9-1,1.3c-0.4,0.4-0.9,0.6-1.5,0.9c-0.6,0.2-1.3,0.3-2.1,0.3
					c-0.4,0-0.8,0-1.2-0.1c-0.4-0.1-0.8-0.2-1.2-0.3s-0.7-0.3-1-0.5c-0.3-0.2-0.6-0.4-0.8-0.6l0.7-1.1c0.1-0.1,0.2-0.2,0.3-0.3
					s0.3-0.1,0.5-0.1c0.2,0,0.4,0,0.5,0.2s0.4,0.2,0.6,0.3s0.5,0.2,0.8,0.3c0.3,0.1,0.7,0.2,1.1,0.2c0.4,0,0.6,0,0.9-0.1
					c0.2-0.1,0.5-0.2,0.6-0.3c0.2-0.1,0.3-0.3,0.4-0.5s0.1-0.4,0.1-0.6c0-0.3-0.1-0.5-0.3-0.7c-0.2-0.2-0.4-0.3-0.7-0.5
					s-0.6-0.3-1-0.4c-0.4-0.1-0.7-0.2-1.1-0.4c-0.4-0.1-0.8-0.3-1.1-0.5s-0.7-0.4-1-0.6c-0.3-0.3-0.5-0.6-0.7-1s-0.3-0.9-0.3-1.4
					c0-0.5,0.1-1,0.3-1.4c0.2-0.5,0.5-0.9,0.9-1.2s0.9-0.6,1.5-0.8s1.2-0.3,2-0.3c0.9,0,1.6,0.1,2.3,0.4s1.3,0.6,1.7,1.1L352.7,91.5
					z"/>
				<path class="st0" d="M359.5,85.5c0,0.3,0,0.5-0.2,0.7c-0.1,0.2-0.2,0.4-0.4,0.6c-0.2,0.2-0.4,0.3-0.6,0.4s-0.5,0.1-0.7,0.1
					c-0.3,0-0.5,0-0.7-0.1c-0.2-0.1-0.4-0.2-0.6-0.4c-0.2-0.2-0.3-0.4-0.4-0.6c-0.1-0.2-0.1-0.5-0.1-0.7s0-0.5,0.1-0.7
					c0.1-0.2,0.2-0.4,0.4-0.6c0.2-0.2,0.4-0.3,0.6-0.4c0.2-0.1,0.5-0.1,0.7-0.1c0.3,0,0.5,0,0.7,0.1c0.2,0.1,0.4,0.2,0.6,0.4
					c0.2,0.2,0.3,0.4,0.4,0.6C359.4,85,359.5,85.2,359.5,85.5z M359,89.1v12.3h-3V89.1H359z"/>
				<path class="st0" d="M367.6,88.9c0.9,0,1.8,0.1,2.5,0.4c0.8,0.3,1.4,0.7,1.9,1.3c0.5,0.5,0.9,1.2,1.2,2s0.4,1.7,0.4,2.6
					c0,1-0.1,1.9-0.4,2.6c-0.3,0.8-0.7,1.5-1.2,2s-1.2,1-1.9,1.3s-1.6,0.4-2.5,0.4s-1.8-0.1-2.5-0.4c-0.8-0.3-1.4-0.7-1.9-1.3
					s-0.9-1.2-1.2-2s-0.4-1.7-0.4-2.6s0.1-1.8,0.4-2.6s0.7-1.4,1.2-2c0.5-0.5,1.2-1,1.9-1.3C365.9,89.1,366.7,88.9,367.6,88.9z
					 M367.6,99.3c1,0,1.8-0.3,2.3-1s0.7-1.7,0.7-3c0-1.3-0.2-2.3-0.7-3s-1.2-1-2.3-1c-1,0-1.8,0.4-2.3,1c-0.5,0.7-0.7,1.7-0.7,3
					s0.2,2.3,0.7,3C365.8,98.9,366.6,99.3,367.6,99.3z"/>
				<path class="st0" d="M376,101.4V89.1h1.8c0.4,0,0.6,0.2,0.8,0.5l0.2,1c0.2-0.3,0.5-0.5,0.8-0.7c0.3-0.2,0.6-0.4,0.9-0.5
					c0.3-0.1,0.6-0.3,1-0.4c0.4-0.1,0.7-0.1,1.1-0.1c0.7,0,1.3,0.1,1.8,0.3c0.5,0.2,1,0.5,1.3,1c0.4,0.4,0.6,0.9,0.8,1.5
					c0.2,0.6,0.3,1.2,0.3,1.9v7.8h-3v-7.8c0-0.8-0.2-1.3-0.5-1.7c-0.4-0.4-0.9-0.6-1.6-0.6c-0.5,0-1,0.1-1.4,0.4s-0.9,0.5-1.3,1v8.9
					L376,101.4L376,101.4z"/>
				<path class="st0" d="M396.9,91.5c-0.1,0.1-0.2,0.2-0.2,0.3s-0.2,0.1-0.3,0.1c-0.1,0-0.3,0-0.5-0.1s-0.4-0.2-0.6-0.3
					c-0.2-0.1-0.5-0.2-0.7-0.3s-0.6-0.1-1-0.1c-0.6,0-1,0.1-1.4,0.4s-0.5,0.6-0.5,1c0,0.3,0.1,0.5,0.3,0.7s0.4,0.3,0.7,0.5
					c0.3,0.1,0.6,0.3,1,0.4s0.7,0.2,1.1,0.4c0.4,0.1,0.7,0.3,1.1,0.4c0.4,0.2,0.7,0.4,1,0.6s0.5,0.5,0.7,0.9
					c0.2,0.4,0.3,0.8,0.3,1.3c0,0.6-0.1,1.1-0.3,1.6c-0.2,0.5-0.5,0.9-1,1.3c-0.4,0.4-0.9,0.6-1.5,0.9c-0.6,0.2-1.3,0.3-2.1,0.3
					c-0.4,0-0.8,0-1.2-0.1c-0.4-0.1-0.8-0.2-1.2-0.3s-0.7-0.3-1-0.5c-0.3-0.2-0.6-0.4-0.8-0.6l0.7-1.1c0.1-0.1,0.2-0.2,0.3-0.3
					s0.3-0.1,0.5-0.1c0.2,0,0.4,0,0.5,0.2s0.4,0.2,0.6,0.3s0.5,0.2,0.8,0.3c0.3,0.1,0.7,0.2,1.1,0.2c0.4,0,0.6,0,0.9-0.1
					c0.2-0.1,0.5-0.2,0.6-0.3c0.2-0.1,0.3-0.3,0.4-0.5s0.1-0.4,0.1-0.6c0-0.3-0.1-0.5-0.3-0.7c-0.2-0.2-0.4-0.3-0.7-0.5
					s-0.6-0.3-1-0.4c-0.4-0.1-0.7-0.2-1.1-0.4c-0.4-0.1-0.8-0.3-1.1-0.5s-0.7-0.4-1-0.6c-0.3-0.3-0.5-0.6-0.7-1s-0.3-0.9-0.3-1.4
					c0-0.5,0.1-1,0.3-1.4c0.2-0.5,0.5-0.9,0.9-1.2s0.9-0.6,1.5-0.8s1.2-0.3,2-0.3c0.9,0,1.6,0.1,2.3,0.4s1.3,0.6,1.7,1.1L396.9,91.5
					z"/>
			</g>
		</g>
		<g>
			
				<linearGradient id="SVGID_1_" gradientUnits="userSpaceOnUse" x1="26.615" y1="66.59" x2="54.59" y2="38.615" gradientTransform="matrix(1 0 0 -1 0 116)">
				<stop  offset="0" style="stop-color:#5FC8D6"/>
				<stop  offset="1" style="stop-color:#4689C8"/>
			</linearGradient>
			<path class="st1" d="M48.3,50.5v-2.2L38,38v44.7c0,1.4,1.1,2.5,2.5,2.5h5.3c1.4,0,2.5-1.1,2.5-2.5V65.6c0-1.4,1.1-2.5,2.5-2.5
				h12.5L53,52.9h-2.2C49.4,52.9,48.3,51.8,48.3,50.5z"/>
			
				<linearGradient id="SVGID_2_" gradientUnits="userSpaceOnUse" x1="41.4975" y1="74.5675" x2="49.9375" y2="83.0075" gradientTransform="matrix(1 0 0 -1 0 116)">
				<stop  offset="0" style="stop-color:#5FC8D6"/>
				<stop  offset="1" style="stop-color:#4689C8"/>
			</linearGradient>
			<path class="st2" d="M45.8,29.9h-5.3c-1.4,0-2.5,1.1-2.5,2.5V38l10.2,10.2V32.4C48.3,31,47.2,29.9,45.8,29.9z"/>
			
				<linearGradient id="SVGID_3_" gradientUnits="userSpaceOnUse" x1="61.14" y1="45.885" x2="75.305" y2="31.72" gradientTransform="matrix(1 0 0 -1 0 116)">
				<stop  offset="0" style="stop-color:#5FC8D6"/>
				<stop  offset="1" style="stop-color:#4689C8"/>
			</linearGradient>
			<path class="st3" d="M68.1,85.1h5.3c1.4,0,2.5-1.1,2.5-2.5v-6.9L65.7,65.6v17.1C65.7,84,66.8,85.1,68.1,85.1z"/>
			
				<linearGradient id="SVGID_4_" gradientUnits="userSpaceOnUse" x1="52.975" y1="63.14" x2="75.895" y2="63.14" gradientTransform="matrix(1 0 0 -1 0 116)">
				<stop  offset="0" style="stop-color:#5FC8D6"/>
				<stop  offset="1" style="stop-color:#4689C8"/>
			</linearGradient>
			<path class="st4" d="M65.7,32.3v20.6H53l10.2,10.2l0,0c1.4,0,2.5,1.1,2.5,2.5l0,0l10.2,10.2V32.4c0-1.4-1.1-2.5-2.5-2.5h-5.3
				C66.8,29.9,65.7,31,65.7,32.3z"/>
			
				<linearGradient id="SVGID_5_" gradientUnits="userSpaceOnUse" x1="13.3331" y1="63.9181" x2="78.9186" y2="-1.6673" gradientTransform="matrix(1 0 0 -1 0 116)">
				<stop  offset="0" style="stop-color:#5FC8D6"/>
				<stop  offset="1" style="stop-color:#4689C8"/>
			</linearGradient>
			<path class="st5" d="M88.9,89c-7.5,7.6-17.8,12.2-29.2,12.2c-22.7,0-41.1-18.4-41.1-41.1H5.3c0,30,24.4,54.4,54.3,54.4
				c15.1,0,28.8-6.2,38.6-16.1L88.9,89z"/>
			
				<linearGradient id="SVGID_6_" gradientUnits="userSpaceOnUse" x1="51.7544" y1="102.3194" x2="117.3444" y2="36.7294" gradientTransform="matrix(1 0 0 -1 0 116)">
				<stop  offset="0" style="stop-color:#5FC8D6"/>
				<stop  offset="1" style="stop-color:#4689C8"/>
			</linearGradient>
			<path class="st6" d="M114,60.2c0-30-24.4-54.4-54.3-54.4v13.3c22.7,0,41.1,18.4,41.1,41.1c0,11.2-4.5,21.4-11.9,28.8l9.4,9.4
				C108,88.6,114,75.1,114,60.2z"/>
			
				<linearGradient id="SVGID_7_" gradientUnits="userSpaceOnUse" x1="2.4169" y1="86.0631" x2="20.2825" y2="68.1975" gradientTransform="matrix(1 0 0 -1 0 116)">
				<stop  offset="0" style="stop-color:#5FC8D6"/>
				<stop  offset="1" style="stop-color:#4689C8"/>
			</linearGradient>
			<path class="st7" d="M0,54.9h13.3c0-11.4,4.7-21.8,12.2-29.2l-9.4-9.4C6.1,26.1,0,39.8,0,54.9z"/>
			
				<linearGradient id="SVGID_8_" gradientUnits="userSpaceOnUse" x1="29.585" y1="113.25" x2="47.445" y2="95.39" gradientTransform="matrix(1 0 0 -1 0 116)">
				<stop  offset="0" style="stop-color:#5FC8D6"/>
				<stop  offset="1" style="stop-color:#4689C8"/>
			</linearGradient>
			<path class="st8" d="M54.3,0.5c-14.9,0-28.4,6-38.2,15.7l9.4,9.4c7.4-7.3,17.6-11.9,28.8-11.9L54.3,0.5L54.3,0.5z"/>
		</g>
	</g>
</g>
</svg>
